<?xml version="1.0" encoding="utf-8"?>
<!-- Generator: Adobe Illustrator 12.0.0, SVG Export Plug-In . SVG Version: 6.00 Build 51448)  -->
<!DOCTYPE svg PUBLIC "-//W3C//DTD SVG 1.1//EN" "http://www.w3.org/Graphics/SVG/1.1/DTD/svg11.dtd" [
	<!ENTITY ns_svg "http://www.w3.org/2000/svg">
	<!ENTITY ns_xlink "http://www.w3.org/1999/xlink">
]>
<svg  version="1.1" id="Layer_1" xmlns="&ns_svg;" xmlns:xlink="&ns_xlink;" width="751" height="601" viewBox="0 0 751 601"
	 overflow="visible" enable-background="new 0 0 751 601" xml:space="preserve">
<g>
	<g>
		<g>
			<path fill="#FFFFFF" d="M0.5,50.5c0-27.6142578,22.3852539-50,50-50h650c27.6142578,0,50,22.3857422,50,50v500
				c0,27.6152344-22.3857422,50-50,50h-650c-27.6147461,0-50-22.3847656-50-50V50.5L0.5,50.5z"/>
			<path fill="#FFFFFF" d="M375.5,300.5"/>
		</g>
		<g>
			<path fill="none" stroke="#000000" stroke-linecap="round" stroke-linejoin="round" stroke-miterlimit="3.863693" d="M0.5,50.5
				c0-27.6142578,22.3852539-50,50-50h650c27.6142578,0,50,22.3857422,50,50v500c0,27.6152344-22.3857422,50-50,50h-650
				c-27.6147461,0-50-22.3847656-50-50V50.5L0.5,50.5z"/>
			<path fill="none" stroke="#000000" stroke-linecap="round" stroke-linejoin="round" stroke-miterlimit="3.863693" d="
				M375.5,300.5"/>
		</g>
	</g>
	<g>
		<g>
			<path d="M10.5,50.5c0-22.0917969,17.9082031-40,40-40h650c22.0917969,0,40,17.9082031,40,40v500
				c0,22.0917969-17.9082031,40-40,40h-650c-22.0917969,0-40-17.9082031-40-40V50.5L10.5,50.5z"/>
			<path d="M375.5,300.5"/>
		</g>
	</g>
	<g>
		<g>
			<path fill="#FFFFFF" d="M25.5,50.5c0-13.8071289,11.1923828-25,25-25h650c13.8066406,0,25,11.1928711,25,25v500
				c0,13.8076172-11.1933594,25-25,25h-650c-13.8076172,0-25-11.1923828-25-25V50.5L25.5,50.5z"/>
			<path fill="#FFFFFF" d="M375.5,300.5"/>
		</g>
	</g>
</g>
<g>
	<path fill-rule="evenodd" clip-rule="evenodd" d="M111.5644531,445.3125V210.5864258H85.1953125v-36.7436523h3.0258789
		c6.0517578,0,12.1040039-1.5849609,18.1557617-4.7548828c6.0522461-3.1699219,11.0952148-7.637207,15.1298828-13.4003906H158.25
		v289.625H111.5644531z"/>
	<path fill-rule="evenodd" clip-rule="evenodd" d="M387.2558594,373.1230469V445.3125h-45.3891602v-72.1894531h-143.515625
		v-27.234375L341.8666992,155.6875h45.3891602v175.9365234h27.6660156v41.4990234H387.2558594z M341.8666992,222.6904297
		l-82.5644531,108.9335938h82.5644531V222.6904297z"/>
	<path fill-rule="evenodd" clip-rule="evenodd" d="M665.8046875,201.5087891
		c-2.59375,3.1699219-4.9716797,6.0517578-7.1328125,8.6455078c-2.1621094,2.59375-4.1787109,5.1875-6.0527344,7.78125
		c-1.8730469,2.5932617-3.8183594,5.3310547-5.8349609,8.2128906s-4.1787109,6.1962891-6.484375,9.9423828
		c-12.9677734,21.3256836-23.9912109,43.8041992-33.0683594,67.4345703
		c-9.0791016,23.6318359-16.0673828,47.1191406-20.9658203,70.4619141
		c-0.8642578,6.0517578-1.7294922,11.8876953-2.59375,17.5068359c-0.8652344,5.6191406-1.5136719,11.2392578-1.9453125,16.859375
		c-0.4316406,5.6191406-0.7929688,11.3828125-1.0800781,17.2910156c-0.2890625,5.9082031-0.4335938,12.4638672-0.4335938,19.6679688
		h-46.6855469c0.2890625-16.7148438,1.296875-32.8525391,3.0263672-48.4140625
		c1.7294922-15.5625,4.2509766-30.8359375,7.5654297-45.8222656c3.3134766-14.9853516,7.5644531-29.8984375,12.7519531-44.7402344
		c5.1875-14.8413086,11.3828125-29.8994141,18.5878906-45.1728516
		c4.8984375-10.9511719,10.2304688-21.6142578,15.9941406-31.9887695s11.2382813-19.5961914,16.4257813-27.6655273h-138.328125
		V155.6875h196.2539063V201.5087891z"/>
</g>
</svg>
